<svg xmlns="http://www.w3.org/2000/svg" viewBox="0 0 32 32">
  <defs>
    <linearGradient id="g" x1="0" y1="0" x2="1" y2="1">
      <stop offset="0" stop-color="#6366f1" />
      <stop offset="1" stop-color="#d946ef" />
    </linearGradient>
  </defs>
  <rect width="32" height="32" rx="8" fill="url(#g)" />
  <path d="M9 23V9h6.2c2.9 0 4.6 1.5 4.6 3.9 0 1.7-.9 2.9-2.4 3.4 1.8.4 2.9 1.8 2.9 3.6 0 2.6-1.9 4.1-5 4.1H9zm3-8.3h2.6c1.2 0 1.9-.6 1.9-1.6s-.7-1.6-1.9-1.6H12v3.2zm0 5.8h2.9c1.3 0 2-.6 2-1.7s-.7-1.7-2-1.7H12v3.4z" fill="#fff"/>
</svg>
